<svg version="1.1" id="Layer_1" xmlns="http://www.w3.org/2000/svg" xmlns:xlink="http://www.w3.org/1999/xlink" x="0px" y="0px"
	 width="100%" viewBox="0 0 1024 1024" enable-background="new 0 0 1024 1024" xml:space="preserve">
<path fill="#000000" opacity="1.000000" stroke="none" 
	d="
M386.277100,231.181976 
	C412.311127,218.636261 439.267792,210.722458 467.663544,207.535736 
	C539.215820,199.505722 603.923035,217.133530 662.140686,259.137238 
	C668.882935,264.001770 675.031982,269.682159 681.552185,274.863312 
	C685.121826,277.699890 684.756348,280.109283 681.502502,282.933777 
	C670.934998,292.107025 660.384155,301.303436 650.008850,310.692047 
	C646.078674,314.248444 643.329895,312.649323 640.239685,309.677307 
	C623.731018,293.800079 604.719543,281.737030 583.853516,272.376617 
	C563.460022,263.228119 542.049194,258.163544 519.977417,255.524261 
	C514.597168,254.880875 512.408630,256.962128 512.381653,262.615112 
	C512.326660,274.113770 512.229065,285.615417 512.438721,297.110565 
	C512.522339,301.698273 510.710083,303.464142 506.250427,303.264252 
	C501.761688,303.063019 497.251923,303.007019 492.764343,303.195831 
	C488.415100,303.378784 486.104004,301.693207 486.133087,297.215698 
	C486.206635,285.888977 486.055695,274.554626 486.437225,263.238281 
	C486.683197,255.942398 486.305908,254.888992 478.922272,255.372696 
	C452.257324,257.119568 427.361877,264.972260 404.053741,277.899506 
	C398.089447,281.207428 392.448395,285.092987 386.561829,288.547913 
	C382.852539,290.724915 382.328217,292.915619 385.105804,296.458038 
	C391.677063,304.838776 397.246948,313.966675 404.308685,322.005707 
	C408.756378,327.068909 408.480011,327.796417 403.177094,331.685822 
	C400.760315,333.458405 398.484863,335.424500 396.058594,337.183136 
	C391.605377,340.410980 389.774994,340.224548 386.411499,335.999847 
	C379.873810,327.788269 373.298035,319.600525 367.011658,311.198181 
	C364.131042,307.348022 361.777985,307.032043 358.242432,310.382324 
	C334.681915,332.708099 316.497803,358.671783 304.405701,388.862274 
	C302.915253,392.583466 303.491211,394.535278 307.513580,395.882935 
	C315.399811,398.525238 323.066071,401.827576 330.963379,404.432159 
	C335.200592,405.829620 335.880371,408.219360 334.804993,412.045135 
	C331.197388,424.879639 331.235779,424.881348 318.704163,420.841919 
	C313.163239,419.055878 307.608887,417.311768 302.060791,415.548126 
	C297.927765,414.234283 295.384796,415.432220 294.508270,419.940063 
	C289.947266,443.396454 287.800507,466.900787 291.001343,490.802734 
	C292.685699,503.380219 295.181610,515.704773 298.794495,527.821289 
	C300.151306,532.371521 298.807770,535.119507 294.473206,536.877075 
	C284.291992,541.005371 274.189941,545.328674 264.015076,549.472900 
	C259.468750,551.324646 256.534088,550.184692 254.920837,545.580078 
	C249.022049,528.743347 244.778091,511.470001 242.763428,493.741882 
	C241.373795,481.513641 240.346588,469.222046 240.786270,456.877106 
	C243.236435,388.085297 268.638763,329.144165 316.839081,280.044830 
	C336.893829,259.615997 360.304077,243.886902 386.277100,231.181976 
z"/>
<path fill="#000000" opacity="1.000000" stroke="none" 
	d="
M490.167755,441.807983 
	C499.529755,438.977692 508.607269,438.863190 517.662781,441.010529 
	C520.410645,441.662170 522.423889,441.190308 524.537048,439.472992 
	C546.637390,421.511841 568.782959,403.606354 590.906555,385.673828 
	C613.031799,367.739990 635.114624,349.753784 657.274414,331.862762 
	C678.787170,314.494049 700.363831,297.204376 721.943176,279.918427 
	C724.275513,278.050110 726.710510,276.263580 729.282837,274.754333 
	C731.869202,273.236786 734.824280,272.756470 737.064392,275.262756 
	C739.295105,277.758575 738.679382,280.726135 736.723694,283.040283 
	C730.814514,290.032440 724.758972,296.903473 718.663208,303.734985 
	C692.275269,333.308075 665.748230,362.757751 639.473083,392.430603 
	C615.069275,419.990021 589.679993,446.665588 565.817749,474.708191 
	C562.796021,478.259247 559.913391,481.943054 556.705017,485.316833 
	C553.322388,488.873749 554.286804,493.480164 553.419189,497.577301 
	C548.661560,520.044861 528.223267,536.797058 505.775116,536.273438 
	C478.582672,535.639160 456.162354,512.627136 456.698029,485.901062 
	C457.080444,466.822510 470.339111,449.193695 490.167755,441.807983 
z"/>
<path fill="#000000" opacity="1.000000" stroke="none" 
	d="
M703.783691,524.895142 
	C711.290344,500.903473 713.993286,476.663696 712.546204,452.072998 
	C710.968018,425.254639 704.987427,399.406219 692.484863,375.403290 
	C690.005554,370.643463 690.662903,367.834656 694.965027,364.511230 
	C705.114990,356.670227 714.552490,347.951141 723.883301,339.138336 
	C729.057434,334.251465 730.104492,334.389893 733.354370,340.500061 
	C747.483337,367.064575 756.223633,395.291595 760.480042,425.096558 
	C766.242859,465.449707 761.409973,504.626221 748.994446,543.135559 
	C746.546814,550.727356 743.827393,551.841309 736.315125,548.665100 
	C727.421143,544.904724 718.494263,541.218811 709.531921,537.624573 
	C701.746582,534.502319 701.245911,533.588318 703.783691,524.895142 
z"/>
<path fill="#000000" opacity="1.000000" stroke="none" 
	d="
M209.809967,620.049927 
	C209.702682,609.479553 209.696213,609.420654 219.515717,608.342834 
	C222.985565,607.961975 226.493561,607.865845 229.987549,607.781555 
	C236.220276,607.631226 237.516663,608.715698 237.232590,614.930847 
	C235.755997,647.235413 236.536682,679.556763 236.353455,711.870422 
	C236.316620,718.367859 236.230469,724.874939 236.530975,731.360718 
	C236.727325,735.598816 235.426697,737.613892 230.924118,737.323669 
	C226.773499,737.056152 222.562820,736.848694 218.439392,737.245911 
	C212.969147,737.772949 209.707504,735.696228 206.565536,731.118408 
	C188.386795,704.631653 169.832672,678.402527 150.372025,652.161804 
	C150.372025,654.347107 150.346664,656.532837 150.375931,658.717712 
	C150.694962,682.534729 151.050354,706.351257 151.329666,730.168640 
	C151.406448,736.715698 150.759735,737.213806 144.159698,737.182861 
	C139.161453,737.159424 134.160858,737.166748 129.164841,737.296875 
	C125.448067,737.393555 123.638145,735.910950 123.642227,732.020142 
	C123.683792,692.362854 123.685005,652.705505 123.612572,613.048340 
	C123.606728,609.847595 124.977417,608.294983 127.970802,608.314819 
	C134.958847,608.361145 141.947845,608.522278 148.932007,608.764954 
	C151.696930,608.861023 152.629318,611.363892 153.920456,613.234497 
	C171.614426,638.868835 189.280487,664.522461 206.956940,690.168884 
	C207.513718,690.976746 208.108246,691.758545 209.315567,693.419983 
	C210.882751,668.484314 210.640274,644.516479 209.809967,620.049927 
z"/>
<path fill="#000000" opacity="1.000000" stroke="none" 
	d="
M556.809509,645.654968 
	C574.033691,636.173706 592.656677,638.220093 603.957825,650.633057 
	C609.763367,657.009888 612.770203,664.735352 614.108521,673.071350 
	C616.142883,685.742310 615.365479,698.304382 611.108093,710.468872 
	C601.748718,737.211365 572.758301,745.445923 552.545471,735.475952 
	C551.846252,735.131042 551.025208,735.033142 549.918579,734.724670 
	C548.896973,738.404846 549.406006,741.885559 549.376587,745.300171 
	C549.296326,754.630798 549.274109,763.963318 549.372681,773.293518 
	C549.410400,776.864502 548.027954,778.477722 544.354858,778.379639 
	C538.859985,778.232849 533.348328,778.137085 527.862610,778.404480 
	C523.367798,778.623657 521.836121,776.443054 521.993164,772.424866 
	C522.161987,768.102478 522.610229,763.783936 522.613831,759.463440 
	C522.643860,723.304626 522.593628,687.145752 522.581604,650.986938 
	C522.578491,641.665588 523.144958,641.217407 532.589905,642.100342 
	C535.735657,642.394470 538.923950,642.754211 542.056946,642.545776 
	C547.089417,642.211060 550.358643,643.413330 549.371338,649.746826 
	C552.472229,649.123352 554.276184,647.077148 556.809509,645.654968 
M585.765869,702.227234 
	C588.115540,695.374268 589.264465,688.470703 587.756348,681.186279 
	C586.146667,673.410950 583.780334,666.258789 575.690186,662.928223 
	C567.374390,659.504639 560.108276,662.128052 553.282166,667.125183 
	C550.489868,669.169434 549.260010,671.661316 549.311035,675.190979 
	C549.464966,685.853394 549.605347,696.528259 549.235962,707.180359 
	C549.077637,711.745178 551.209839,713.873779 554.843933,715.466858 
	C566.811584,720.712769 578.989258,715.761658 585.765869,702.227234 
z"/>
<path fill="#000000" opacity="1.000000" stroke="none" 
	d="
M864.009949,737.364746 
	C841.524414,744.325623 820.866333,731.380188 815.991455,707.052002 
	C813.172241,692.983032 813.951660,679.036377 819.367188,665.398254 
	C828.396790,642.658508 852.050171,634.860718 872.459900,642.077271 
	C878.383789,644.171814 878.760193,644.083618 878.646973,637.931885 
	C878.450928,627.278748 879.198608,616.611145 878.131165,605.970703 
	C877.723450,601.906372 879.292542,599.618835 883.731201,599.704956 
	C889.060242,599.808411 894.401489,599.868713 899.722473,599.623291 
	C904.669556,599.395081 906.284790,601.911926 906.075684,606.336365 
	C905.847900,611.158630 905.393372,615.979309 905.383911,620.801270 
	C905.322021,652.456665 905.324585,684.112244 905.386169,715.767639 
	C905.395569,720.589966 905.910217,725.409180 906.030334,730.233887 
	C906.183350,736.382324 905.269531,737.273987 899.288086,737.270081 
	C895.456421,737.267639 891.624023,737.162292 887.793213,737.208374 
	C879.462952,737.308655 879.463257,737.336243 878.122131,729.189697 
	C873.523376,732.022888 869.486572,735.585938 864.009949,737.364746 
M875.373291,711.811401 
	C877.456543,710.462524 878.676697,708.723511 878.666565,706.067871 
	C878.620117,693.915161 878.669983,681.762024 878.712585,669.609192 
	C878.719360,667.674988 878.330872,666.103149 876.523865,664.933167 
	C867.139587,658.857178 849.702026,657.916321 843.846252,674.364136 
	C840.141663,684.769592 840.320923,695.224365 844.833740,705.450134 
	C847.354492,711.162048 851.597961,714.749146 857.756409,716.132324 
	C864.083374,717.553467 869.540039,715.495361 875.373291,711.811401 
z"/>
<path fill="#000000" opacity="1.000000" stroke="none" 
	d="
M442.404572,736.918518 
	C440.246399,736.301941 438.446075,735.925232 436.725677,735.321045 
	C423.007965,730.503601 424.270142,731.678589 425.012329,716.736755 
	C425.142761,714.111023 425.621216,711.470947 425.668823,708.803589 
	C425.766937,703.304260 426.992157,702.545410 431.958008,705.314453 
	C440.041901,709.822021 448.547516,712.982727 457.741302,714.238281 
	C463.928345,715.083191 470.016937,714.961365 475.917023,712.630005 
	C480.850342,710.680603 483.919159,707.024841 484.425079,701.832581 
	C484.910950,696.846497 482.662109,692.788452 478.453888,689.950073 
	C472.438141,685.892639 465.496765,683.937622 458.812408,681.423340 
	C451.622101,678.718750 444.518799,675.817627 438.276947,671.278564 
	C426.355682,662.609375 421.916534,647.662720 426.331299,632.014526 
	C430.849304,616.000366 442.865662,608.786682 457.943787,605.882019 
	C472.589661,603.060791 487.051147,604.758667 501.201141,609.553284 
	C505.587067,611.039490 507.727020,613.194519 507.472107,618.178589 
	C507.124603,624.973877 507.260315,631.783325 505.822479,638.461487 
	C503.623535,639.223450 502.207581,637.811829 500.721191,636.885315 
	C489.626465,629.969543 477.424896,628.222534 464.719147,629.496216 
	C459.433228,630.026062 454.494171,632.073242 452.601440,637.711304 
	C450.858185,642.904175 453.391235,648.305115 458.857941,652.322144 
	C465.443420,657.161194 473.342957,658.938660 480.802765,661.725830 
	C488.782776,664.707336 496.668304,667.776978 503.087738,673.698547 
	C509.191284,679.328735 512.240784,686.238037 512.332458,694.488403 
	C512.610474,719.498962 497.632568,735.669128 472.515747,738.514893 
	C462.410248,739.659912 452.629578,739.067200 442.404572,736.918518 
z"/>
<path fill="#000000" opacity="1.000000" stroke="none" 
	d="
M655.346863,737.088013 
	C634.881958,730.206055 623.933960,714.579407 623.578613,693.207336 
	C623.306824,676.862427 626.850464,662.179504 639.328125,650.672058 
	C653.577759,637.530518 679.053467,635.545593 695.109802,646.409668 
	C705.569946,653.487183 708.967834,664.295837 710.213318,676.050354 
	C710.632263,680.004089 710.437744,684.047485 710.243713,688.036255 
	C709.879639,695.519287 707.941895,697.201721 700.328247,697.017761 
	C698.999390,696.985657 697.674377,696.703369 696.347351,696.701233 
	C681.548462,696.677551 666.749634,696.686279 651.201477,696.686279 
	C651.689087,703.544556 654.835693,708.483398 659.849792,712.355225 
	C667.549011,718.300476 676.371094,717.701660 685.185120,716.167236 
	C690.101013,715.311340 694.826172,713.603333 699.348022,711.428955 
	C702.638306,709.846802 704.641541,710.994080 704.845520,714.489868 
	C705.116638,719.135132 705.124878,723.809937 704.961609,728.462036 
	C704.831665,732.162781 701.775024,733.225098 698.893616,734.202759 
	C684.777710,738.992493 670.449951,740.849182 655.346863,737.088013 
M682.387817,667.221680 
	C677.709106,660.647400 671.214233,658.155151 664.299927,660.280701 
	C656.221802,662.764038 651.168762,669.523010 651.083801,678.297974 
	C662.273865,678.297974 673.460144,678.297974 684.719849,678.297974 
	C685.236755,674.344604 684.212585,671.074341 682.387817,667.221680 
z"/>
<path fill="#000000" opacity="1.000000" stroke="none" 
	d="
M721.636536,708.035034 
	C717.023438,688.275452 718.050537,669.881592 731.674744,654.037048 
	C745.257568,638.240723 772.037109,634.540039 789.728943,645.635559 
	C800.170044,652.183716 804.024109,662.371521 805.242310,673.844238 
	C805.784668,678.951599 805.415833,684.165649 805.317505,689.328491 
	C805.211731,694.882935 803.725708,696.524292 798.299744,696.933655 
	C795.826294,697.120178 793.314270,696.878906 790.824219,696.747498 
	C776.372437,695.985107 761.928711,696.470886 747.517456,696.438049 
	C746.950256,705.891174 755.747131,715.466064 765.702332,716.664368 
	C775.364075,717.827332 784.579285,716.083191 793.442810,712.159363 
	C799.335510,709.550659 800.296997,710.226807 800.343689,716.777039 
	C800.355530,718.443054 800.343323,720.109192 800.342407,721.775269 
	C800.336548,732.812805 800.360413,732.900574 789.500305,735.859558 
	C778.328735,738.903442 767.006165,740.341553 755.477966,738.068848 
	C738.505859,734.722961 726.963318,725.162231 721.636536,708.035034 
M770.423462,678.647949 
	C772.752563,678.636902 775.081665,678.609558 777.410706,678.619446 
	C779.728271,678.629333 780.905945,677.447266 780.572083,675.200928 
	C779.793945,669.964844 778.086975,665.232300 773.224121,662.235657 
	C763.201355,656.059204 751.045837,661.308105 747.213562,673.313904 
	C745.972229,677.202698 746.505005,678.879822 750.981445,678.705688 
	C757.127808,678.466492 763.290588,678.647705 770.423462,678.647949 
z"/>
<path fill="#000000" opacity="1.000000" stroke="none" 
	d="
M321.149719,736.432007 
	C308.966034,739.628906 297.100037,740.272766 285.278351,737.070435 
	C268.195007,732.442810 258.090973,720.917297 254.299515,703.937317 
	C250.589844,687.323608 252.625626,671.543335 262.821228,657.387817 
	C276.060852,639.005859 305.350006,633.724365 324.260406,646.293030 
	C334.429016,653.051514 338.267792,663.248962 339.277740,674.782104 
	C339.682892,679.408569 339.385498,684.100586 339.335480,688.761963 
	C339.264069,695.419922 337.818756,697.036743 331.035614,697.009399 
	C321.386658,696.970581 311.739868,696.547485 302.090546,696.385254 
	C296.264587,696.287231 290.432770,696.484070 284.608887,696.337341 
	C280.404144,696.231384 279.648315,697.986938 281.153595,701.564392 
	C284.872955,710.403931 291.100922,715.967529 300.926453,716.865295 
	C310.265900,717.718567 319.107544,715.805420 327.612488,711.998352 
	C332.813721,709.670044 334.195984,710.554443 334.322174,716.142273 
	C334.344727,717.140808 334.352386,718.140930 334.325378,719.139160 
	C333.968231,732.345337 337.454712,731.764282 321.149719,736.432007 
M285.237915,665.741394 
	C283.126923,668.160950 281.772430,670.987122 280.773376,674.008850 
	C279.732178,677.157837 280.639191,678.711975 284.174133,678.675293 
	C292.974335,678.583862 301.776581,678.582458 310.576904,678.664368 
	C314.421387,678.700134 314.994263,676.903992 314.204742,673.576050 
	C312.782837,667.582764 310.119171,662.640381 303.925110,660.565002 
	C296.918945,658.217468 290.916412,660.244202 285.237915,665.741394 
z"/>
<path fill="#000000" opacity="1.000000" stroke="none" 
	d="
M411.131470,737.187439 
	C399.611450,740.755432 388.635315,739.641724 378.010559,735.573975 
	C368.105957,731.781982 363.571045,723.810669 362.648315,713.528015 
	C361.350494,699.065186 362.227417,684.563477 361.872314,670.083130 
	C361.683350,662.379639 361.808716,662.376587 354.306732,662.368225 
	C346.676941,662.359680 346.674988,662.359863 345.935150,654.737183 
	C345.870819,654.074341 345.848602,653.407166 345.818176,652.741455 
	C345.334442,642.161133 345.714447,641.546814 356.300751,641.864258 
	C360.900146,642.002136 362.157532,640.321838 361.822174,636.071838 
	C361.508362,632.095886 361.768158,628.077637 361.677429,624.080139 
	C361.604034,620.846375 363.116455,619.189514 366.284363,618.693054 
	C371.859924,617.819275 377.405975,616.758911 382.978058,615.861328 
	C387.982147,615.055359 389.278015,616.158691 389.299103,621.292542 
	C389.321686,626.790710 389.283600,632.291260 389.134003,637.787109 
	C389.052460,640.783875 390.318542,642.017090 393.292450,641.928772 
	C398.287933,641.780457 403.288727,641.821106 408.286255,641.726929 
	C411.814636,641.660522 413.416687,643.212097 413.369476,646.850342 
	C413.125092,665.693787 415.018494,662.029480 398.641083,662.372803 
	C388.227997,662.591125 389.301453,660.992737 389.106720,672.148682 
	C388.941040,681.639587 388.575775,691.126892 388.401947,700.617737 
	C388.359497,702.933777 388.887390,705.258667 388.866882,707.577026 
	C388.794342,715.774414 393.466675,717.732056 402.795258,717.373413 
	C404.611481,717.303528 406.410645,716.859619 408.227783,716.720520 
	C409.599731,716.615540 411.412231,716.873901 411.597229,718.263428 
	C412.426331,724.491394 415.283844,730.783020 411.131470,737.187439 
z"/>
</svg>